<?xml version="1.0" standalone="no"?>
<!DOCTYPE svg PUBLIC "-//W3C//DTD SVG 20010904//EN"
 "http://www.w3.org/TR/2001/REC-SVG-20010904/DTD/svg10.dtd">
<svg version="1.0" xmlns="http://www.w3.org/2000/svg"
 width="2855.000000pt" height="1776.000000pt" viewBox="0 0 2855.000000 1776.000000"
 preserveAspectRatio="xMidYMid meet">

<g transform="translate(0.000000,1776.000000) scale(0.100000,-0.100000)"
fill="#000000" stroke="none">
<path d="M11624 17749 c-1859 -88 -3516 -1178 -4339 -2854 -281 -572 -444
-1160 -501 -1801 -22 -250 -14 -789 15 -1024 114 -919 450 -1757 990 -2470
280 -370 628 -724 971 -986 460 -353 985 -629 1532 -808 87 -28 158 -53 158
-56 -1 -3 -22 -22 -48 -42 -26 -21 -63 -51 -82 -68 -60 -52 -263 -191 -407
-278 -265 -161 -640 -331 -984 -447 -74 -25 -135 -45 -136 -45 -9 0 -33 -65
-33 -90 0 -38 47 -90 82 -91 13 0 34 -2 48 -3 64 -8 224 -16 420 -21 118 -3
233 -8 255 -10 63 -8 690 13 900 30 783 62 1466 199 2130 428 731 251 1393
610 1929 1045 151 122 336 294 431 402 105 117 103 108 55 295 -76 290 -104
520 -104 855 -1 313 18 485 84 772 175 761 643 1476 1273 1945 155 116 167
128 167 168 0 21 -9 44 -23 60 -20 24 -39 30 -162 51 -273 48 -480 115 -710
230 -467 235 -836 604 -1075 1079 -118 234 -196 474 -236 735 -22 142 -26 550
-6 675 76 474 236 842 526 1209 58 74 70 94 70 127 0 24 -7 46 -19 60 -52 58
-424 282 -665 401 -654 323 -1310 492 -2040 528 -223 11 -230 11 -466 -1z"/>
<path d="M18094 12479 c-969 -70 -1835 -645 -2274 -1509 -168 -332 -253 -625
-296 -1025 -13 -118 -7 -421 10 -559 100 -781 469 -1418 1196 -2060 127 -112
322 -259 492 -369 658 -429 1391 -676 2243 -758 277 -27 889 -11 933 23 6 6
12 23 12 37 0 42 -19 58 -105 89 -304 112 -579 258 -792 420 -80 61 -229 204
-282 271 l-30 37 111 44 c736 284 1347 921 1608 1675 48 140 102 355 125 505
25 159 31 540 11 712 -40 350 -129 648 -287 958 -396 781 -1154 1335 -2026
1480 -219 36 -425 45 -649 29z"/>
<path d="M15402 9900 c0 -14 2 -19 5 -12 2 6 2 18 0 25 -3 6 -5 1 -5 -13z"/>
<path d="M15402 9685 c0 -16 2 -22 5 -12 2 9 2 23 0 30 -3 6 -5 -1 -5 -18z"/>
</g>
</svg>
